<?xml version="1.0" standalone="no"?><!DOCTYPE svg PUBLIC "-//W3C//DTD SVG 1.1//EN" "http://www.w3.org/Graphics/SVG/1.1/DTD/svg11.dtd"><svg class="icon" height="512" viewBox="0 0 1024 1024" version="1.1" xmlns="http://www.w3.org/2000/svg"><path d="M382.891893 959.238138a129.523724 129.523724 0 0 0 224.303411-129.523724L382.891893 959.238138z m-256.428872-49.242007l47.070505 81.495203 784.423264-452.822093-47.070506-81.55907c-226.85812 48.731066-323.170633-360.98032-566.953697-360.341643A93.821672 93.821672 0 0 1 262.437384 49.761891L262.309649 49.634155A94.971291 94.971291 0 1 0 97.850285 144.541578l0.127736 0.127736a93.88554 93.88554 0 0 1-0.063868 94.14101c-122.434408 210.763456 184.258355 499.062317 28.548868 671.185807z m183.236472-721.066492c176.530361-3.832063 317.550274 332.495319 438.451856 348.97319l-83.666705 48.347859c-129.651459-71.978914-227.113591-351.911104-354.785151-397.384916zM146.772954 116.312049a38.576099 38.576099 0 1 1 66.805629-38.512232 38.576099 38.576099 0 0 1-66.805629 38.512232z" fill="#FFBE19" /></svg>